<?xml version="1.0" standalone="no"?>
<!DOCTYPE svg PUBLIC "-//W3C//DTD SVG 20010904//EN"
 "http://www.w3.org/TR/2001/REC-SVG-20010904/DTD/svg10.dtd">
<svg version="1.0" xmlns="http://www.w3.org/2000/svg"
 width="1280.000000pt" height="1280.000000pt" viewBox="0 0 1280.000000 1280.000000"
 preserveAspectRatio="xMidYMid meet">
<metadata>
Created by potrace 1.15, written by Peter Selinger 2001-2017
</metadata>
<g transform="translate(0.000000,1280.000000) scale(0.100000,-0.100000)"
fill="#000000" stroke="none">
<path d="M6090 12794 c-25 -2 -110 -8 -190 -14 -1061 -77 -2116 -439 -3022
-1036 -1468 -968 -2485 -2516 -2783 -4239 -68 -395 -90 -670 -90 -1115 1 -393
14 -581 61 -910 226 -1564 1020 -2981 2244 -4003 1427 -1192 3316 -1699 5167
-1387 2298 387 4219 2020 4978 4230 439 1279 460 2685 60 3975 -399 1285
-1193 2411 -2275 3224 -954 718 -2065 1145 -3270 1256 -163 15 -769 28 -880
19z m775 -2348 c779 -96 1479 -388 2085 -872 173 -138 486 -451 624 -624 486
-610 775 -1302 873 -2090 25 -206 25 -714 0 -920 -98 -790 -386 -1479 -873
-2090 -138 -173 -451 -486 -624 -624 -611 -487 -1300 -775 -2090 -873 -206
-25 -714 -25 -920 0 -788 98 -1480 387 -2090 873 -173 138 -486 451 -624 624
-485 608 -775 1302 -872 2090 -26 206 -26 706 -1 910 108 863 435 1604 987
2233 662 754 1565 1233 2560 1356 229 28 240 29 555 26 176 -2 328 -9 410 -19z"/>
<path d="M6339 9819 c-257 -60 -433 -281 -433 -544 0 -156 53 -284 165 -396
106 -107 233 -159 389 -159 161 0 280 50 395 165 82 82 118 144 145 251 77
301 -102 602 -405 679 -63 16 -197 18 -256 4z"/>
<path d="M4278 8950 c-220 -37 -402 -207 -453 -421 -82 -349 187 -688 546
-689 71 0 196 32 262 67 78 41 196 165 234 243 136 285 22 617 -258 750 -115
54 -216 69 -331 50z"/>
<path d="M8361 8905 c-260 -59 -442 -280 -445 -539 -1 -161 49 -281 164 -396
86 -87 147 -122 256 -150 403 -103 774 263 679 669 -68 287 -372 480 -654 416z"/>
<path d="M6215 7863 c-616 -80 -1115 -537 -1256 -1152 -26 -111 -36 -380 -20
-504 81 -608 530 -1102 1129 -1244 131 -31 400 -43 534 -24 656 94 1165 603
1259 1259 19 134 7 403 -24 534 -141 594 -632 1044 -1231 1127 -72 10 -324 13
-391 4z"/>
<path d="M3355 6896 c-229 -74 -385 -288 -385 -526 0 -159 51 -281 165 -396
138 -140 330 -194 523 -149 191 45 350 201 407 399 24 81 17 248 -13 331 -61
168 -211 305 -383 350 -84 23 -230 19 -314 -9z"/>
<path d="M9130 6906 c-196 -56 -344 -207 -395 -401 -19 -75 -19 -204 0 -278
37 -141 152 -287 281 -355 215 -113 477 -72 650 102 122 123 171 250 161 426
-11 225 -151 415 -362 492 -74 27 -263 35 -335 14z"/>
<path d="M4193 4916 c-96 -24 -183 -75 -258 -150 -143 -144 -195 -334 -145
-530 27 -107 63 -169 145 -251 115 -115 234 -165 395 -165 156 0 283 52 389
159 112 112 165 240 165 396 0 238 -141 439 -369 525 -75 28 -242 37 -322 16z"/>
<path d="M8291 4874 c-171 -46 -324 -185 -381 -347 -79 -224 -15 -471 160
-617 110 -90 220 -130 366 -130 159 0 290 56 398 171 212 224 209 558 -8 775
-78 78 -176 133 -274 153 -72 15 -196 13 -261 -5z"/>
<path d="M6316 4065 c-89 -25 -178 -77 -246 -145 -111 -111 -164 -239 -164
-395 0 -157 54 -285 164 -395 220 -217 566 -216 785 4 220 221 220 560 0 781
-115 116 -237 166 -401 164 -49 0 -111 -7 -138 -14z"/>
</g>
</svg>
