<?xml version="1.0" encoding="iso-8859-1"?>
<!-- Generator: Adobe Illustrator 21.0.0, SVG Export Plug-In . SVG Version: 6.00 Build 0)  -->
<svg xmlns="http://www.w3.org/2000/svg" xmlns:xlink="http://www.w3.org/1999/xlink" version="1.1" id="Capa_1" x="0px" y="0px" viewBox="0 0 512 512" style="enable-background:new 0 0 512 512;" xml:space="preserve" width="512" height="512">
<g>
	<path d="M453.072,236.817c-0.423-4.392-2.757-8.373-6.381-10.888c-3.625-2.515-8.171-3.305-12.433-2.165l-73.994,19.827   c-1.203-10.172-3.863-19.902-7.77-28.976l74.036-19.837c4.259-1.142,7.8-4.099,9.683-8.087c1.882-3.987,1.915-8.602,0.088-12.614   C408.874,113.8,353.6,71.398,288.441,60.651c-4.344-0.721-8.788,0.513-12.146,3.362C272.936,66.864,271,71.046,271,75.451v76.625   c-4.901-0.704-9.907-1.076-15-1.076c-5.093,0-10.1,0.372-15,1.076V75.451c0-4.405-1.936-8.587-5.295-11.438   c-3.359-2.85-7.804-4.084-12.146-3.362C158.402,71.397,103.127,113.8,75.7,174.076c-1.827,4.014-1.794,8.628,0.088,12.615   s5.423,6.945,9.683,8.087l74.037,19.837c-3.907,9.074-6.567,18.804-7.77,28.976l-73.995-19.827   c-4.26-1.143-8.808-0.35-12.432,2.164c-3.624,2.515-5.958,6.496-6.381,10.887C58.313,243.212,58,249.667,58,256   c0,50.454,18.996,98.517,53.487,135.334c3.013,3.216,7.287,4.952,11.691,4.727c4.402-0.219,8.485-2.362,11.165-5.862l46.6-60.854   c6.999,7.161,15.01,13.326,23.8,18.264l-46.603,60.859c-2.679,3.497-3.684,7.995-2.75,12.301c0.935,4.305,3.714,7.981,7.602,10.055   C191.429,445.985,223.591,454,256,454c32.542,0,64.822-8.077,93.353-23.359c3.883-2.08,6.656-5.763,7.582-10.069   c0.926-4.308-0.088-8.804-2.773-12.297l-46.723-60.766c8.78-4.955,16.779-11.136,23.764-18.311l46.718,60.761   c2.687,3.493,6.773,5.629,11.176,5.839c4.4,0.221,8.675-1.525,11.682-4.748C435.099,354.274,454,306.313,454,256   C454,249.672,453.688,243.218,453.072,236.817z M301,94.088c41.895,11.581,77.611,38.991,99.739,76.542l-64.806,17.365   c-9.573-11.236-21.466-20.435-34.933-26.85V94.088z M111.262,170.631c22.128-37.552,57.845-64.963,99.738-76.543v67.057   c-13.467,6.415-25.359,15.615-34.933,26.85L111.262,170.631z M121.862,357.153c-21.631-28.619-33.52-63.339-33.855-99.579   l64.703,17.337c1.877,10.275,5.252,20.033,9.894,29.038L121.862,357.153z M319.003,411.767C299.092,419.804,277.617,424,256,424   c-21.504,0-42.874-4.154-62.696-12.11l40.743-53.206C241.13,360.197,248.473,361,256,361c7.599,0,15.01-0.819,22.155-2.36   L319.003,411.767z M256,331c-41.355,0-75-33.645-75-75s33.645-75,75-75c41.355,0,75,33.645,75,75S297.356,331,256,331z    M390.337,356.888l-40.844-53.12c4.593-8.954,7.934-18.651,9.798-28.857l64.702-17.337   C423.66,293.698,411.842,328.319,390.337,356.888z"/>
	<path d="M437.019,74.98C388.667,26.629,324.38,0,256,0S123.333,26.629,74.981,74.98C26.629,123.333,0,187.62,0,256   s26.629,132.667,74.981,181.02C123.333,485.371,187.62,512,256,512s132.667-26.629,181.019-74.98   C485.371,388.667,512,324.38,512,256S485.371,123.333,437.019,74.98z M256,482C131.383,482,30,380.617,30,256S131.383,30,256,30   s226,101.383,226,226S380.617,482,256,482z"/>
	<path d="M256,211c-24.813,0-45,20.187-45,45s20.187,45,45,45c24.813,0,45-20.187,45-45S280.813,211,256,211z M256,271   c-8.271,0-15-6.729-15-15s6.729-15,15-15c8.271,0,15,6.729,15,15S264.271,271,256,271z"/>
</g>















</svg>
